HIERARCHY
ROOT Hips
{
	OFFSET 0.000000 0.000000 0.000000
	CHANNELS 6 Xposition Yposition Zposition Yrotation Xrotation Zrotation
	JOINT Chest
	{
		OFFSET 0.000000 -0.009281 11.569106
		CHANNELS 3 Yrotation Xrotation Zrotation
		JOINT Chest2
		{
			OFFSET -0.000000 0.016865 9.269641
			CHANNELS 3 Yrotation Xrotation Zrotation
			JOINT Chest3
			{
				OFFSET -0.000000 0.000001 8.374491
				CHANNELS 3 Yrotation Xrotation Zrotation
				JOINT Chest4
				{
					OFFSET -0.000000 0.000001 8.374493
					CHANNELS 3 Yrotation Xrotation Zrotation
					JOINT Neck
					{
						OFFSET -0.000000 0.000002 12.152554
						CHANNELS 3 Yrotation Xrotation Zrotation
						JOINT Head
						{
							OFFSET -0.000000 0.040101 7.802319
							CHANNELS 3 Yrotation Xrotation Zrotation
							End Site
							{
								OFFSET -0.000000 0.020947 14.853096
							}
						}
					}
					JOINT RightCollar
					{
						OFFSET 2.894404 0.000001 6.791374
						CHANNELS 3 Yrotation Xrotation Zrotation
						JOINT RightShoulder
						{
							OFFSET 13.574684 0.000001 0.000000
							CHANNELS 3 Yrotation Xrotation Zrotation
							JOINT RightElbow
							{
								OFFSET 23.923903 0.000002 0.000000
								CHANNELS 3 Yrotation Xrotation Zrotation
								JOINT RightWrist
								{
									OFFSET 19.846718 0.012767 0.000000
									CHANNELS 3 Yrotation Xrotation Zrotation
									End Site
									{
										OFFSET 14.973145 0.000001 0.000000
									}
								}
							}
						}
					}
					JOINT LeftCollar
					{
						OFFSET -2.894404 0.000001 6.791374
						CHANNELS 3 Yrotation Xrotation Zrotation
						JOINT LeftShoulder
						{
							OFFSET -13.574684 -0.000001 0.000000
							CHANNELS 3 Yrotation Xrotation Zrotation
							JOINT LeftElbow
							{
								OFFSET -23.923903 -0.000002 0.000000
								CHANNELS 3 Yrotation Xrotation Zrotation
								JOINT LeftWrist
								{
									OFFSET -19.846718 0.012763 0.000000
									CHANNELS 3 Yrotation Xrotation Zrotation
									End Site
									{
										OFFSET -14.973145 -0.000001 0.000000
									}
								}
							}
						}
					}
				}
			}
		}
	}
	JOINT RightHip
	{
		OFFSET 9.469263 0.004643 0.045487
		CHANNELS 3 Yrotation Xrotation Zrotation
		JOINT RightKnee
		{
			OFFSET 0.000000 0.002661 -40.478676
			CHANNELS 3 Yrotation Xrotation Zrotation
			JOINT RightAnkle
			{
				OFFSET 0.000000 0.049106 -35.224068
				CHANNELS 3 Yrotation Xrotation Zrotation
				JOINT RightToe
				{
					OFFSET -0.000001 12.539529 -6.151390
					CHANNELS 3 Yrotation Xrotation Zrotation
					End Site
					{
						OFFSET -0.000001 5.044994 -1.291870
					}
				}
			}
		}
	}
	JOINT LeftHip
	{
		OFFSET -9.469263 0.004641 0.045487
		CHANNELS 3 Yrotation Xrotation Zrotation
		JOINT LeftKnee
		{
			OFFSET 0.000000 0.002661 -40.478676
			CHANNELS 3 Yrotation Xrotation Zrotation
			JOINT LeftAnkle
			{
				OFFSET 0.000000 0.049106 -35.224068
				CHANNELS 3 Yrotation Xrotation Zrotation
				JOINT LeftToe
				{
					OFFSET -0.000001 12.539529 -6.151390
					CHANNELS 3 Yrotation Xrotation Zrotation
					End Site
					{
						OFFSET -0.000001 5.044994 -1.291870
					}
				}
			}
		}
	}
}
MOTION
Frames: 9
Frame Time: 0.016667
9.124455 4.399321 82.936958 -10.735270 -1.891045 -100.452282 -2.738499 -5.864359 9.507255 -1.104091 -2.651770 4.232800 -1.104090 -2.651771 4.232800 -0.809588 -1.996594 3.169251 5.769407 -25.421612 1.434463 10.652072 -11.324046 3.908241 11.478310 -4.353139 -10.715032 72.949979 -10.385610 28.338759 -15.707577 -61.080176 18.563660 -61.641440 21.599835 41.847340 -4.087818 -10.554007 -19.759582 -68.466882 35.522219 -43.037893 6.669752 13.095509 -8.894223 69.162270 6.397944 -61.957568 0.108779 -9.482687 -7.100200 2.441007 -9.373026 -4.091233 -2.715063 7.686474 -0.844099 0.000039 -0.114551 0.001947 1.538191 -11.165794 -4.808579 0.396867 -3.881322 -4.636653 -2.806784 4.966366 1.157997 -1.146116 -0.084612 0.000772 
9.119989 4.360103 82.928421 -10.758888 -1.956975 -100.774141 -2.869460 -5.857657 9.422905 -1.159786 -2.650750 4.195827 -1.159786 -2.650749 4.195827 -0.851521 -1.996142 3.141289 5.777208 -25.433049 1.430517 10.664585 -11.345454 3.902066 11.615337 -4.408249 -10.766235 73.121116 -9.863504 27.662509 -13.835496 -60.119537 14.877013 -61.391209 20.892621 41.435264 -3.978537 -10.942373 -19.841607 -68.892990 34.370396 -42.339943 6.671841 14.164642 -7.583829 69.173417 6.366701 -61.617097 0.131963 -9.418662 -7.005681 2.420534 -9.524639 -3.866803 -2.749372 7.738476 -0.866845 -0.006139 -0.112274 0.002268 1.544137 -11.172549 -4.776496 0.363129 -4.067092 -4.533252 -2.564820 5.121587 1.333278 -1.086688 -0.067440 0.000057 
9.128712 4.325413 82.921524 -10.791052 -2.030859 -101.101983 -2.984378 -5.798826 9.355932 -1.207310 -2.626445 4.166863 -1.207309 -2.626445 4.166863 -0.887455 -1.978182 3.119424 5.809589 -25.483111 1.372700 10.706804 -11.435062 3.802316 11.730121 -4.554685 -10.879321 73.239791 -9.386982 27.014283 -11.892851 -58.750384 11.195784 -61.076842 20.077426 40.911259 -3.998836 -11.271887 -19.878137 -69.164524 33.051647 -41.628934 6.844005 15.006861 -6.041085 69.233973 6.154773 -61.396762 0.151937 -9.387528 -6.979155 2.394762 -9.651030 -3.591677 -2.769732 7.787935 -0.858611 -0.017425 -0.111344 0.002335 1.538021 -11.196923 -4.703766 0.357172 -4.247861 -4.432043 -2.344566 5.275108 1.475359 -1.031323 -0.053124 -0.001353 
9.148263 4.292486 82.911751 -10.822558 -2.111861 -101.437742 -3.078936 -5.702653 9.230495 -1.246503 -2.583667 4.113986 -1.246503 -2.583667 4.113987 -0.917366 -1.946254 3.079709 5.816122 -25.566482 1.313445 10.701109 -11.584229 3.691498 11.770183 -4.772425 -10.885482 73.258055 -8.933123 26.352012 -10.111026 -57.068310 7.878335 -60.758986 19.099599 40.180309 -4.082463 -11.632546 -19.693978 -69.553701 31.840703 -41.087679 6.894511 15.376083 -4.578351 69.186818 5.794297 -60.865762 0.177401 -9.375571 -6.970111 2.362245 -9.756649 -3.318154 -2.783343 7.849136 -0.822523 -0.026006 -0.121743 0.002400 1.525052 -11.234275 -4.585345 0.371014 -4.431340 -4.336036 -2.139491 5.442727 1.569126 -0.980556 -0.044750 -0.002716 
9.174603 4.258005 82.899948 -10.833328 -2.188268 -101.771861 -3.203790 -5.624303 9.119225 -1.300654 -2.549384 4.066618 -1.300654 -2.549385 4.066619 -0.958406 -1.920802 3.044049 5.852240 -25.611239 1.209465 10.739750 -11.659824 3.510716 11.851050 -4.948934 -10.898204 73.193202 -8.461504 25.722953 -8.634087 -55.076077 4.995573 -60.395927 18.255704 39.401667 -4.097568 -11.869703 -19.539134 -69.964442 30.567094 -40.511512 6.850549 15.598455 -3.382383 69.118687 5.447726 -59.854491 0.200616 -9.347613 -6.946037 2.336830 -9.866713 -3.093616 -2.796502 7.929306 -0.758789 -0.031245 -0.136717 0.001851 1.514426 -11.249162 -4.476255 0.381874 -4.623677 -4.217171 -1.948036 5.616170 1.653051 -0.930589 -0.039056 -0.002552 
9.206262 4.221857 82.889763 -10.833598 -2.258265 -102.097149 -3.341675 -5.596396 9.004435 -1.361906 -2.538435 4.017498 -1.361905 -2.538436 4.017498 -1.004617 -1.912887 3.006986 5.884407 -25.614002 1.070853 10.765149 -11.654041 3.270648 11.916655 -4.941936 -10.922365 73.055232 -7.968678 25.078624 -7.432367 -52.817928 2.504257 -59.969505 17.433558 38.564262 -3.975876 -11.995562 -19.416276 -70.311579 28.888924 -39.849919 6.831851 16.237820 -2.436729 69.032223 5.422717 -58.362307 0.229157 -9.306507 -6.889191 2.300959 -9.988801 -2.921433 -2.797412 8.018616 -0.685727 -0.036254 -0.146079 0.000578 1.503145 -11.256082 -4.392463 0.390046 -4.814598 -4.078518 -1.771485 5.782220 1.754966 -0.879625 -0.027459 -0.001161 
9.240645 4.181951 82.883202 -10.835732 -2.327338 -102.418249 -3.447897 -5.563242 8.877162 -1.411528 -2.526479 3.963302 -1.411528 -2.526479 3.963303 -1.042132 -1.904118 2.966176 5.901703 -25.634935 0.891106 10.753758 -11.677031 2.952470 11.948377 -4.923127 -10.941921 72.855941 -7.374644 24.437642 -6.539738 -50.325326 0.387275 -59.491931 16.460128 37.552144 -3.814574 -12.286612 -19.423731 -70.665827 26.965563 -39.272935 6.919666 17.452752 -1.614663 69.046430 5.653117 -56.842132 0.267262 -9.274576 -6.818851 2.251640 -10.099009 -2.741492 -2.790786 8.096001 -0.640393 -0.043511 -0.146684 0.000057 1.496130 -11.266183 -4.335659 0.392951 -5.002291 -3.927102 -1.611970 5.933684 1.855796 -0.826403 -0.005912 0.001414 
9.278911 4.138379 82.877960 -10.855750 -2.400591 -102.724426 -3.514805 -5.491075 8.725712 -1.444445 -2.496636 3.899761 -1.444444 -2.496636 3.899761 -1.067273 -1.881795 2.918474 5.906938 -25.700100 0.672734 10.710371 -11.777817 2.559299 11.931747 -5.056702 -10.950602 72.636514 -6.632207 23.934767 -5.832042 -47.694429 -1.544007 -59.031665 15.395482 36.385692 -3.820153 -12.702670 -19.463761 -71.047758 25.116808 -38.856902 7.089834 18.708441 -0.676481 69.158015 5.506173 -55.807266 0.308678 -9.278181 -6.778093 2.201372 -10.186121 -2.532192 -2.778926 8.166377 -0.605265 -0.056074 -0.145943 0.000401 1.493434 -11.295361 -4.303590 0.397675 -5.191982 -3.774039 -1.467849 6.082454 1.959564 -0.774720 0.018465 0.002851 
9.319162 4.096133 82.870193 -10.896868 -2.478188 -103.006984 -3.576169 -5.403807 8.562673 -1.472386 -2.459695 3.830978 -1.472385 -2.459695 3.830978 -1.088744 -1.854099 2.866884 5.922318 -25.774965 0.417042 10.676511 -11.894350 2.101271 11.890004 -5.230052 -10.951296 72.388879 -5.851513 23.514359 -5.273790 -44.667969 -3.284421 -58.469199 14.288554 35.139257 -3.860934 -13.120340 -19.469285 -71.474310 23.387584 -38.578797 7.234468 19.241854 0.352964 69.150235 4.789181 -54.887602 0.339169 -9.308549 -6.748206 2.177438 -10.275072 -2.308350 -2.778595 8.246472 -0.592863 -0.068461 -0.148123 -0.000974 1.494303 -11.342589 -4.290213 0.400241 -5.384666 -3.640234 -1.324904 6.236128 2.099727 -0.729722 0.034874 0.002606 
